<?xml version="1.0" ?><svg height="32" id="icon" viewBox="0 0 32 32" width="32" fill='#c7c7c7' xmlns="http://www.w3.org/2000/svg"><defs><style>.cls-1{fill:none;}</style></defs><title/><rect height="2" width="27.9985" x="2" y="27"/><path d="M16,20a4.0045,4.0045,0,0,1,4,4h2a6,6,0,0,0-12,0h2A4.0045,4.0045,0,0,1,16,20Z"/><rect height="2" width="5" x="25" y="22"/><rect height="1.9998" transform="translate(-4.1378 21.7175) rotate(-45)" width="4.958" x="21.6675" y="14.8536"/><polygon points="16 4 11 9 12.41 10.41 15 7.83 15 8 15 15 17 15 17 8 17 7.83 19.59 10.41 21 9 16 4"/><rect height="4.958" transform="translate(-8.9099 10.1967) rotate(-45)" width="1.9998" x="6.8536" y="13.3745"/><rect height="2" width="5" x="2" y="22"/><rect class="cls-1" data-name="&lt;Transparent Rectangle&gt;" height="32" id="_Transparent_Rectangle_" width="32"/></svg>