<?xml version="1.0" ?><svg height="32" id="icon" viewBox="0 0 32 32" width="32" fill='#c7c7c7' xmlns="http://www.w3.org/2000/svg"><defs><style>.cls-1{fill:none;}</style></defs><title/><rect height="2" width="27.9985" x="2" y="27.0049"/><path d="M16,20a4.0045,4.0045,0,0,1,4,4h2a6,6,0,0,0-12,0h2A4.0045,4.0045,0,0,1,16,20Z" transform="translate(0 0.0049)"/><rect height="2" width="5" x="25" y="22.0049"/><rect height="1.9998" transform="translate(-4.1378 21.7224) rotate(-45)" width="4.958" x="21.6675" y="14.8536"/><polygon points="19.59 9.595 17 12.175 17 4.005 15 4.005 15 12.175 12.41 9.595 11 11.005 16 16.005 21 11.005 19.59 9.595"/><rect height="4.958" transform="translate(-8.9099 10.2015) rotate(-45)" width="1.9998" x="6.8536" y="13.3745"/><rect height="2" width="5" x="2" y="22.0049"/><rect class="cls-1" data-name="&lt;Transparent Rectangle&gt;" height="32" id="_Transparent_Rectangle_" width="32"/></svg>